<?xml version="1.0" encoding="UTF-8"?><svg id="Camada_2" xmlns="http://www.w3.org/2000/svg" viewBox="0 0 518.65 197.91"><defs><style>.cls-1{fill:#4a4a49;}.cls-2{fill:#00a092;}</style></defs><g id="Layer_1"><path class="cls-1" d="m231.51,31.54h-3.38v-4.47h16.17c6.71,0,11.49,4.52,11.49,11.49s-4.78,11.65-11.49,11.65h-7.59v13.57h-5.2V31.54Zm11.96,14.2c4.32,0,6.97-2.76,6.97-7.18s-2.65-7.02-6.92-7.02h-6.81v14.2h6.76Z"/><path class="cls-1" d="m278.05,26.44c10.61,0,18.88,8.16,18.88,18.72s-8.27,19.24-18.88,19.24-18.82-8.42-18.82-19.24,8.22-18.72,18.82-18.72Zm0,33.07c7.44,0,13.47-6.24,13.47-14.35s-6.03-13.88-13.47-13.88-13.42,6.03-13.42,13.88,5.98,14.35,13.42,14.35Z"/><path class="cls-1" d="m304.57,31.54h-3.38v-4.47h16.02c6.45,0,10.97,4.06,10.97,10.76,0,6.14-4,9.15-6.6,9.72v.1s.94.47,1.56,1.66l4.42,8.79c.52,1.09,1.35,1.2,2.6,1.2h.68v4.47h-2.55c-2.86,0-3.9-.36-5.1-2.76l-4.99-9.88c-.94-1.72-1.61-1.98-3.64-1.98h-4.78v14.61h-5.2V31.54Zm11.96,13.16c3.95,0,6.29-2.55,6.29-6.66s-2.34-6.5-6.19-6.5h-6.86v13.16h6.76Z"/><path class="cls-1" d="m344.61,31.54h-7.38c-.73,0-1.14.36-1.14,1.14v2.34h-4.63v-4.84c0-2.34.78-3.12,3.12-3.12h25.27c2.34,0,3.12.78,3.12,3.12v4.84h-4.63v-2.34c0-.78-.42-1.14-1.14-1.14h-7.38v32.24h-5.2V31.54Z"/><path class="cls-1" d="m360.37,59.3h.73c.94,0,1.4-.21,1.72-1.14l11.49-31.1h5.46l11.49,31.1c.31.94.83,1.14,1.72,1.14h.78v4.47h-2.91c-2.6,0-3.43-.62-4.26-3.02l-2.76-7.54h-13.52l-2.76,7.54c-.88,2.39-1.72,3.02-4.32,3.02h-2.86v-4.47Zm22.15-10.45l-4-11.18c-.68-1.92-1.46-5.15-1.46-5.15h-.1s-.73,3.22-1.4,5.15l-4,11.18h10.97Z"/><path class="cls-1" d="m400.2,32.68c0-.78-.42-1.14-1.14-1.14h-2.24v-4.47h5.25c2.34,0,3.33.99,3.33,3.33v27.77c0,.73.42,1.14,1.14,1.14h10.14c.73,0,1.14-.42,1.14-1.14v-2.34h4.73v4.63c0,2.34-.99,3.33-3.33,3.33h-15.7c-2.34,0-3.33-.99-3.33-3.33v-27.77Z"/><path class="cls-2" d="m227.3,104.4h5.2v1.4c0,5.1,2.91,6.71,5.77,6.71s5.72-1.72,5.72-6.5v-20.33c0-.78-.42-1.14-1.14-1.14h-9v-4.47h12.01c2.34,0,3.33.99,3.33,3.33v22.83c0,7.96-5.56,11.18-10.97,11.18s-10.92-3.28-10.92-11.18v-1.82Z"/><path class="cls-2" d="m253.92,112.3h.73c.94,0,1.4-.21,1.72-1.14l11.49-31.1h5.46l11.49,31.1c.31.94.83,1.14,1.72,1.14h.78v4.47h-2.91c-2.6,0-3.43-.62-4.26-3.02l-2.76-7.54h-13.52l-2.76,7.54c-.88,2.39-1.72,3.02-4.32,3.02h-2.86v-4.47Zm22.15-10.45l-4-11.18c-.68-1.92-1.46-5.15-1.46-5.15h-.1s-.73,3.22-1.4,5.15l-4,11.18h10.97Z"/><path class="cls-2" d="m293.75,84.54h-3.38v-4.47h16.02c6.45,0,10.97,4.06,10.97,10.76,0,6.14-4,9.15-6.6,9.72v.1s.94.47,1.56,1.66l4.42,8.79c.52,1.09,1.35,1.2,2.6,1.2h.68v4.47h-2.55c-2.86,0-3.9-.37-5.1-2.76l-4.99-9.88c-.94-1.72-1.61-1.98-3.64-1.98h-4.78v14.61h-5.2v-32.24Zm11.96,13.16c3.95,0,6.29-2.55,6.29-6.66s-2.34-6.5-6.19-6.5h-6.86v13.16h6.76Z"/><path class="cls-2" d="m326.41,84.54h-3.38v-4.47h14.87c11.18,0,18.56,6.71,18.56,18.3s-7.38,18.41-18.56,18.41h-8.16c-2.34,0-3.33-.99-3.33-3.33v-28.91Zm6.34,27.77h4.78c8.16,0,13.52-4.89,13.52-13.94s-5.41-13.83-13.52-13.83h-5.93v26.62c0,.73.42,1.14,1.14,1.14Z"/><path class="cls-2" d="m360.94,112.3h3.59v-27.77h-3.59v-4.47h12.12v4.47h-3.59v27.77h3.59v4.47h-12.12v-4.47Z"/><path class="cls-2" d="m376.8,112.3h1.77c.73,0,1.09-.42,1.14-1.14l2.5-31.1h5.36l8.63,19.45c.88,1.98,1.82,4.63,1.82,4.63h.1s.94-2.65,1.82-4.63l8.63-19.45h5.36l2.5,31.1c.05.73.42,1.14,1.14,1.14h1.72v4.47h-4.63c-2.34,0-3.17-.99-3.33-3.33l-1.51-19.4c-.16-2.18-.1-5.41-.1-5.41h-.1s-1.04,3.43-1.92,5.41l-7.44,16.12h-4.37l-7.44-16.12c-.88-1.92-1.98-5.46-1.98-5.46h-.1s.05,3.28-.1,5.46l-1.46,19.4c-.16,2.34-.99,3.33-3.38,3.33h-4.63v-4.47Z"/><path class="cls-2" d="m440.7,84.54h-3.38v-4.47h14.87c11.18,0,18.56,6.71,18.56,18.3s-7.38,18.41-18.56,18.41h-8.16c-2.34,0-3.33-.99-3.33-3.33v-28.91Zm6.34,27.77h4.78c8.16,0,13.52-4.89,13.52-13.94s-5.41-13.83-13.52-13.83h-5.93v26.62c0,.73.42,1.14,1.14,1.14Z"/><path class="cls-2" d="m493.64,79.44c10.61,0,18.88,8.16,18.88,18.72s-8.27,19.24-18.88,19.24-18.82-8.42-18.82-19.24,8.22-18.72,18.82-18.72Zm0,33.07c7.44,0,13.47-6.24,13.47-14.35s-6.03-13.88-13.47-13.88-13.42,6.03-13.42,13.88,5.98,14.35,13.42,14.35Z"/><path class="cls-2" d="m231.46,137.53h-3.38v-4.47h15.71c6.19,0,10.66,3.43,10.66,9.36,0,4-2.13,6.71-4.58,7.9v.1c3.9,1.14,6.03,4.79,6.03,8.89,0,6.92-5.3,10.45-11.8,10.45h-9.31c-2.34,0-3.33-.99-3.33-3.33v-28.91Zm12.38,10.97c3.22,0,5.3-2.34,5.3-5.56s-1.98-5.41-5.41-5.41h-7.07v10.97h7.18Zm-6.03,16.8h6.55c3.9,0,6.19-2.5,6.19-6.24s-2.44-6.29-6.19-6.29h-7.7v11.39c0,.73.42,1.14,1.14,1.14Z"/><path class="cls-2" d="m264.11,137.53h-3.38v-4.47h21.58c2.34,0,3.33.99,3.33,3.33v4.63h-4.73v-2.34c0-.78-.42-1.14-1.14-1.14h-10.45v11.49h12.84v4.47h-12.84v10.66c0,.73.42,1.14,1.14,1.14h10.71c.73,0,1.14-.42,1.14-1.14v-2.34h4.78v4.63c0,2.34-.99,3.33-3.33,3.33h-16.33c-2.34,0-3.33-.99-3.33-3.33v-28.91Z"/><path class="cls-2" d="m291,165.3h3.59v-27.77h-3.59v-4.47h12.12v4.47h-3.59v27.77h3.59v4.47h-12.12v-4.47Z"/><path class="cls-2" d="m306.96,157.4h5.2v1.4c0,5.1,2.91,6.71,5.77,6.71s5.72-1.72,5.72-6.5v-20.33c0-.78-.42-1.14-1.14-1.14h-9v-4.47h12.01c2.34,0,3.33.99,3.33,3.33v22.83c0,7.96-5.56,11.18-10.97,11.18s-10.92-3.28-10.92-11.18v-1.82Z"/><path class="cls-2" d="m333.58,165.3h.73c.94,0,1.4-.21,1.72-1.14l11.49-31.1h5.46l11.49,31.1c.31.94.83,1.14,1.72,1.14h.78v4.47h-2.91c-2.6,0-3.43-.62-4.26-3.02l-2.76-7.54h-13.52l-2.76,7.54c-.88,2.39-1.72,3.02-4.32,3.02h-2.86v-4.47Zm22.15-10.45l-4-11.18c-.68-1.92-1.46-5.15-1.46-5.15h-.1s-.73,3.22-1.4,5.15l-4,11.18h10.97Z"/><path class="cls-2" d="m371.08,149.44h15.19v4.47h-15.19v-4.47Z"/><path class="cls-2" d="m395.72,137.53h-3.38v-4.47h20.23c2.34,0,3.33.99,3.33,3.33v4.63h-4.73v-2.34c0-.78-.42-1.14-1.14-1.14h-9.1v12.06h12.53v4.47h-12.53v15.7h-5.2v-32.24Z"/><path class="cls-2" d="m422.92,138.68c0-.78-.42-1.14-1.14-1.14h-2.24v-4.47h5.25c2.34,0,3.33.99,3.33,3.33v27.77c0,.73.42,1.14,1.14,1.14h10.14c.73,0,1.14-.42,1.14-1.14v-2.34h4.73v4.63c0,2.34-.99,3.33-3.33,3.33h-15.7c-2.34,0-3.33-.99-3.33-3.33v-27.77Z"/><path class="cls-2" d="m465.87,132.44c10.61,0,18.88,8.16,18.88,18.72s-8.27,19.24-18.88,19.24-18.82-8.42-18.82-19.24,8.22-18.72,18.82-18.72Zm0,33.07c7.44,0,13.47-6.24,13.47-14.35s-6.03-13.88-13.47-13.88-13.42,6.03-13.42,13.88,5.98,14.35,13.42,14.35Z"/><path class="cls-2" d="m492.39,137.53h-3.38v-4.47h16.02c6.45,0,10.97,4.06,10.97,10.76,0,6.14-4,9.15-6.6,9.72v.1s.94.47,1.56,1.66l4.42,8.79c.52,1.09,1.35,1.2,2.6,1.2h.68v4.47h-2.55c-2.86,0-3.9-.37-5.1-2.76l-4.99-9.88c-.94-1.72-1.61-1.98-3.64-1.98h-4.78v14.61h-5.2v-32.24Zm11.96,13.16c3.95,0,6.29-2.55,6.29-6.66s-2.34-6.5-6.19-6.5h-6.86v13.16h6.76Z"/><path class="cls-2" d="m186.93,120.89c16.02-15.85,16.16-41.78.3-57.81-1.73-1.75-3.63-3.28-5.65-4.58,5.82-13.71,7.47-28.95,4.41-43.9l-.26-1.26-1.26-.26c-19.18-3.93-38.94-.04-55.28,10.46-2.2-4.11-5.01-7.97-8.44-11.44-15.85-16.02-41.79-16.16-57.82-.3-1.75,1.73-3.28,3.63-4.58,5.65-13.71-5.82-28.96-7.47-43.9-4.41l-1.26.26-.26,1.26c-3.84,18.76-.2,38.07,9.79,54.2-3.8,2.13-7.38,4.78-10.62,7.98-16.02,15.85-16.16,41.78-.3,57.82,1.73,1.75,3.63,3.28,5.65,4.58-5.81,13.71-7.47,28.95-4.4,43.9l.26,1.26,1.26.26c19.12,3.92,38.81.06,55.12-10.36,2.21,4.17,5.05,8.08,8.52,11.59,15.85,16.02,41.78,16.16,57.82.3,1.75-1.73,3.28-3.63,4.58-5.65,13.71,5.81,28.95,7.47,43.9,4.4l1.26-.26.26-1.26c3.86-18.82.18-38.2-9.89-54.36,3.87-2.15,7.51-4.83,10.79-8.08Zm-2.48-55.06c14.34,14.5,14.22,37.96-.27,52.29-3.1,3.06-6.54,5.58-10.19,7.59-2.5-3.59-5.33-7-8.47-10.18-8.13-8.22-18.18-13.85-29.14-16.5,10.69-2.61,20.5-8.07,28.53-16.01,6.27-6.2,11.32-13.28,15.04-20.91,1.61,1.08,3.12,2.32,4.51,3.73Zm-84.93,43.46c-5.7,0-10.34-4.64-10.34-10.34s4.64-10.34,10.34-10.34,10.34,4.64,10.34,10.34-4.64,10.34-10.34,10.34Zm-13.95-13.22c-2.87.43-5.79.66-8.74.65-15.36-.08-29.78-6.14-40.6-17.07-2.92-2.95-5.53-6.07-7.86-9.34,16.84-7.51,37.38-4.48,51.21,9.12l1.44,1.45c2.76,2.92,5.14,6.1,7.19,9.45-1.27,1.67-2.2,3.62-2.64,5.74Zm27.91,5.76c2.85-.42,5.75-.65,8.67-.64,15.37.08,29.78,6.14,40.6,17.07,2.87,2.9,5.44,5.96,7.74,9.17-16.8,7.4-37.23,4.34-51.01-9.21l-1.44-1.45c-2.71-2.88-5.07-6.01-7.1-9.31,1.23-1.64,2.13-3.55,2.56-5.64ZM182.4,16.66c2.53,13.6.96,27.41-4.25,39.91-7.94-3.87-17.29-4.56-25.87-1.57-2.49.87-4.89,2.04-7.11,3.48-2.01,1.3-3.53,2.48-4.77,3.71-2.14,2.12-3.4,4.32-3.85,6.72-.13.66-.2,1.33-.2,1.99h0s0,.1,0,.14c0,4.93,4.01,8.94,8.94,8.94s8.94-4.01,8.94-8.94c0-4.47-3.31-8.18-7.61-8.83.22-.15.43-.3.67-.45,1.96-1.27,4.07-2.3,6.27-3.07,7.63-2.66,15.94-2.03,22.98,1.45-3.54,7.33-8.37,14.14-14.39,20.1-10.93,10.81-25.42,16.72-40.78,16.63-2.64-.01-5.27-.23-7.87-.6-.41-2.14-1.31-4.11-2.57-5.79,2.96-1.95,5.78-4.15,8.41-6.64l1.5-1.49c14.7-14.95,18.02-37.08,10.03-55.3,15.21-10.03,33.31-13.78,51.52-10.38Zm-64.32,62.92l-1.45,1.44c-2.64,2.5-5.5,4.69-8.5,6.61-1.54-1.17-3.32-2.04-5.25-2.51-.37-2.69-.57-5.41-.56-8.15.08-15.36,6.14-29.78,17.07-40.6,2.61-2.58,5.36-4.93,8.22-7.05,6.98,16.66,3.81,36.68-9.53,50.26ZM65.68,14.58C80.18.24,103.64.37,117.97,14.86c3.26,3.29,5.91,6.97,7.97,10.9-3.26,2.34-6.38,4.96-9.29,7.84-8.94,8.85-14.82,19.96-17.12,32.04-2.27-11.84-7.99-22.74-16.66-31.51-6.2-6.27-13.28-11.32-20.91-15.03,1.08-1.61,2.32-3.12,3.73-4.52Zm-49.17,2.05c13.6-2.53,27.41-.96,39.91,4.25-3.87,7.94-4.56,17.29-1.57,25.87.87,2.49,2.04,4.89,3.48,7.11,1.3,2.01,2.48,3.53,3.71,4.77,2.12,2.15,4.32,3.4,6.72,3.85.66.12,1.33.19,1.99.2h0s.1,0,.14,0c4.93,0,8.94-4.01,8.94-8.94s-4.01-8.94-8.94-8.94c-4.47,0-8.18,3.31-8.83,7.61-.15-.22-.3-.43-.45-.67-1.27-1.96-2.3-4.07-3.07-6.27h0c-2.66-7.63-2.02-15.94,1.45-22.98,7.33,3.54,14.14,8.37,20.1,14.39,10.81,10.93,16.72,25.41,16.63,40.78-.01,2.5-.21,4.99-.55,7.46-1.87.45-3.6,1.28-5.1,2.39-2.09-3.31-4.5-6.45-7.24-9.36l-1.49-1.5c-15.19-14.93-37.8-18.14-56.18-9.64-9.47-14.97-12.96-32.62-9.64-50.37Zm-1.93,115.19C.24,117.32.37,93.87,14.86,79.54c3.04-3.01,6.42-5.5,10.01-7.49,2.53,3.65,5.39,7.11,8.58,10.34,8.02,8.1,17.89,13.69,28.66,16.39-10.47,2.66-20.09,8.06-27.98,15.86-6.27,6.2-11.32,13.28-15.04,20.91-1.61-1.08-3.12-2.32-4.51-3.73Zm2.05,49.16c-2.53-13.6-.95-27.41,4.26-39.91,7.94,3.87,17.29,4.56,25.87,1.57,2.49-.87,4.89-2.04,7.11-3.47,2.01-1.3,3.53-2.48,4.77-3.71,2.14-2.12,3.4-4.32,3.85-6.72.12-.66.19-1.33.21-1.99h0s0-.1,0-.14c0-4.93-4.01-8.94-8.94-8.94s-8.94,4.01-8.94,8.94c0,4.47,3.31,8.18,7.61,8.83-.22.15-.43.3-.67.45-1.96,1.27-4.07,2.3-6.27,3.07-7.63,2.66-15.94,2.02-22.98-1.45,3.54-7.33,8.37-14.14,14.39-20.1,10.93-10.81,25.41-16.72,40.78-16.63,2.62.02,5.24.23,7.83.6.39,2.23,1.29,4.28,2.59,6.02-2.98,1.96-5.82,4.17-8.46,6.67l-1.5,1.49c-14.65,14.9-18.01,36.95-10.1,55.13-15.18,9.96-33.23,13.67-51.38,10.29Zm64.25-62.66l1.45-1.44c2.65-2.51,5.52-4.71,8.54-6.64,1.55,1.19,3.36,2.07,5.32,2.54.35,2.6.53,5.23.51,7.88-.08,15.36-6.14,29.78-17.07,40.6-2.65,2.62-5.44,5.01-8.35,7.15-6.9-16.62-3.71-36.57,9.6-50.1Zm52.4,65c-14.5,14.34-37.96,14.22-52.29-.27-3.3-3.34-5.99-7.07-8.05-11.04,3.32-2.37,6.48-5.02,9.45-7.95,8.86-8.77,14.72-19.76,17.07-31.72,2.28,11.81,7.99,22.69,16.64,31.44,6.2,6.27,13.28,11.32,20.91,15.03-1.08,1.61-2.32,3.12-3.73,4.51Zm49.17-2.05c-13.6,2.53-27.41.95-39.91-4.26,3.87-7.94,4.56-17.28,1.57-25.87-.87-2.49-2.04-4.89-3.47-7.11-1.3-2.01-2.48-3.53-3.71-4.77-2.12-2.14-4.32-3.4-6.72-3.85-.66-.12-1.33-.19-1.99-.2h0c-.05,0-.1,0-.15,0-4.93,0-8.94,4.01-8.94,8.94s4.01,8.94,8.94,8.94c4.47,0,8.18-3.31,8.83-7.61.15.22.3.43.45.67,1.27,1.96,2.3,4.07,3.07,6.27,2.66,7.63,2.03,15.94-1.45,22.98-7.33-3.54-14.14-8.37-20.1-14.39-10.81-10.93-16.72-25.41-16.63-40.78.01-2.49.21-4.98.55-7.44,1.95-.46,3.73-1.32,5.28-2.49,2.07,3.24,4.43,6.33,7.13,9.18l1.49,1.5c15.14,14.88,37.66,18.12,56,9.73,9.56,15,13.08,32.73,9.75,50.55Z"/></g></svg>