<?xml version="1.0" standalone="no"?>
<!DOCTYPE svg PUBLIC "-//W3C//DTD SVG 20010904//EN"
 "http://www.w3.org/TR/2001/REC-SVG-20010904/DTD/svg10.dtd">
<svg version="1.0" xmlns="http://www.w3.org/2000/svg"
 width="519.000000pt" height="519.000000pt" viewBox="0 0 519.000000 519.000000"
 preserveAspectRatio="xMidYMid meet">
<metadata>
Created by potrace 1.14, written by Peter Selinger 2001-2017
</metadata>
<g transform="translate(0.000000,519.000000) scale(0.100000,-0.100000)"
fill="#000000" stroke="none">
<path d="M808 3574 c-64 -16 -133 -58 -184 -111 l-43 -44 -48 16 c-102 36
-223 46 -345 31 l-57 -7 -7 -47 c-22 -139 0 -296 62 -431 40 -86 40 -88 15
-96 -28 -9 -117 -99 -145 -148 -74 -129 -71 -300 9 -427 12 -19 43 -54 67 -77
25 -23 42 -45 38 -50 -22 -23 -53 -183 -54 -278 0 -57 15 -154 25 -161 6 -3
57 -9 113 -11 131 -7 241 14 356 68 l85 40 20 -27 c54 -75 112 -126 182 -161
65 -32 85 -37 157 -39 128 -5 222 31 308 117 l50 50 61 -20 c70 -23 185 -39
255 -35 71 4 132 14 133 22 0 4 3 16 6 27 2 11 5 70 5 130 1 124 -20 219 -72
326 -16 35 -30 65 -30 69 0 3 14 14 30 24 53 31 119 106 152 174 31 62 33 73
33 172 0 97 -2 110 -31 171 -19 39 -52 87 -83 117 l-51 50 15 42 c37 104 49
244 31 362 l-7 47 -62 8 c-157 19 -289 -3 -431 -73 -39 -19 -71 -34 -72 -34
-1 0 -13 17 -27 38 -104 154 -281 223 -459 176z m224 -45 c75 -24 147 -78 195
-146 l32 -45 -83 -81 c-64 -64 -92 -101 -124 -165 -23 -46 -44 -99 -48 -118
-6 -34 -7 -33 -33 43 -28 84 -77 165 -138 227 -43 44 -135 115 -175 135 -37
19 -35 32 11 74 100 90 235 119 363 76z m-576 -114 c102 -22 107 -28 89 -89
-20 -64 -19 -131 2 -192 44 -131 128 -198 202 -160 39 21 54 50 47 90 -10 49
-30 68 -79 73 -41 5 -46 3 -73 -30 l-28 -36 -19 42 c-10 23 -21 67 -24 97 -4
57 14 141 33 147 16 5 127 -72 183 -126 116 -114 183 -273 176 -424 -2 -45 -7
-64 -21 -74 -21 -15 -44 -17 -44 -4 0 18 -106 125 -156 157 -120 77 -288 99
-422 56 l-63 -20 -26 51 c-57 113 -78 204 -76 334 1 110 5 119 55 122 23 1 44
3 45 5 8 7 135 -5 199 -19z m1346 12 c10 -2 20 -6 24 -10 10 -10 11 -175 2
-232 -8 -44 -36 -145 -43 -153 -2 -2 -29 4 -61 14 -150 43 -357 -50 -357 -161
0 -68 60 -111 124 -87 30 12 58 63 52 97 -5 25 -33 59 -55 68 -20 8 7 24 72
44 46 13 66 14 119 5 35 -6 68 -15 74 -21 16 -16 -51 -120 -128 -196 -115
-115 -262 -176 -415 -172 -71 2 -72 2 -85 35 -8 19 -10 32 -4 32 24 0 146 138
177 201 55 114 68 255 33 368 l-19 61 44 26 c60 35 171 73 242 82 51 7 160 6
204 -1z m-505 -193 c26 -102 14 -221 -34 -323 -30 -64 -150 -191 -180 -191
-43 0 -56 22 -56 101 1 165 67 309 198 431 22 21 44 36 50 35 5 -2 15 -26 22
-53z m558 -315 c21 -23 49 -67 64 -98 22 -48 26 -69 26 -151 0 -83 -4 -103
-27 -153 -29 -60 -120 -160 -159 -172 -17 -6 -28 1 -52 31 -78 96 -168 162
-270 200 -50 18 -58 24 -42 29 157 56 291 164 365 294 19 33 40 61 46 61 7 0
28 -19 49 -41z m-1227 -21 c96 -36 161 -85 226 -170 26 -34 27 -40 15 -67 -16
-37 -27 -39 -128 -35 -146 7 -267 62 -378 172 -40 40 -73 76 -73 81 0 23 126
49 213 44 37 -2 94 -13 125 -25z m-291 -131 c68 -69 134 -112 216 -143 48 -17
58 -24 42 -29 -48 -15 -153 -70 -190 -98 -72 -55 -190 -196 -207 -248 -6 -19
-50 14 -85 64 -49 69 -68 132 -67 222 2 128 43 212 144 292 l55 43 18 -22 c10
-13 43 -49 74 -81z m718 -83 c13 -9 29 -31 35 -50 35 -104 -80 -178 -162 -105
-91 81 24 223 127 155z m-190 -136 c15 -32 15 -32 -17 -58 -108 -83 -161 -164
-194 -291 -19 -75 -15 -199 10 -269 15 -44 15 -45 -7 -62 -33 -26 -164 -75
-231 -87 -64 -12 -197 -14 -233 -5 -12 3 -25 15 -29 26 -7 24 -7 183 0 218 3
14 9 39 12 55 4 17 13 46 21 66 l14 36 42 -15 c97 -34 228 -11 316 55 87 67
72 186 -24 194 -35 2 -42 0 -69 -27 -43 -44 -33 -109 22 -138 l27 -15 -46 -20
c-58 -26 -130 -32 -192 -16 -26 6 -50 14 -53 18 -16 15 88 160 161 225 58 51
167 108 241 126 33 8 94 15 136 15 76 1 77 1 93 -31z m510 7 c89 -24 182 -80
258 -157 37 -37 67 -72 67 -78 0 -16 -101 -40 -176 -41 -150 -2 -278 60 -375
184 -37 47 -38 50 -24 77 8 16 25 30 37 33 40 7 152 -2 213 -18z m-425 -95
c17 -17 19 -30 15 -94 -6 -102 -21 -158 -66 -247 -26 -50 -62 -98 -106 -142
-37 -37 -70 -67 -74 -67 -14 0 -31 67 -36 142 -10 142 33 254 139 361 71 71
95 80 128 47z m171 -27 c67 -90 197 -170 304 -188 66 -11 167 -6 225 11 79 22
81 22 99 -11 59 -106 89 -228 86 -359 -3 -110 -6 -115 -70 -117 -22 -1 -53 -2
-70 -3 -70 -3 -232 31 -257 53 -4 3 -1 24 7 46 57 160 -56 393 -180 369 -40
-7 -61 -32 -70 -82 -8 -45 37 -92 88 -92 34 0 86 38 87 64 1 6 9 -5 20 -24 35
-65 38 -201 5 -246 -13 -18 -17 -16 -84 30 -101 69 -174 147 -220 235 -21 42
-41 88 -45 102 -14 61 -19 108 -19 168 0 51 3 67 18 77 29 22 38 17 76 -33z
m-93 -273 c48 -124 155 -248 283 -326 l61 -36 -39 -40 c-21 -21 -67 -53 -103
-71 -58 -29 -73 -32 -155 -32 -80 0 -97 4 -155 31 -65 31 -134 92 -169 150
l-19 31 64 57 c35 32 82 83 103 114 35 53 90 174 92 204 0 9 2 9 6 -2 3 -8 17
-44 31 -80z"/>
<path d="M2725 3319 c-87 -24 -147 -128 -126 -218 32 -143 185 -201 300 -114
60 46 88 147 60 220 -12 34 -55 80 -89 98 -33 17 -108 24 -145 14z m129 -64
c83 -54 79 -189 -6 -240 -65 -38 -155 -8 -184 61 -53 126 80 251 190 179z"/>
<path d="M2280 3301 c0 -11 8 -22 18 -25 17 -6 18 -19 17 -154 0 -81 1 -153 3
-159 2 -7 15 -13 28 -13 23 0 24 3 24 71 l0 71 28 -2 c67 -5 93 1 122 28 61
54 47 158 -25 188 -21 9 -69 14 -125 14 -82 0 -90 -2 -90 -19z m186 -35 c41
-13 52 -89 17 -117 -8 -7 -36 -14 -64 -15 l-49 -3 0 68 c0 37 2 70 5 73 6 6
65 3 91 -6z"/>
<path d="M3012 3298 c2 -13 10 -23 18 -23 13 0 15 -22 17 -135 1 -74 2 -147 2
-162 1 -23 6 -28 26 -28 24 0 25 2 25 76 l0 75 37 -3 c34 -4 39 -9 71 -68 38
-72 46 -80 80 -80 17 0 22 6 22 25 0 14 -6 25 -13 25 -7 0 -27 27 -44 60 -29
54 -30 59 -13 65 32 10 53 82 37 128 -17 51 -59 67 -170 67 -96 0 -98 0 -95
-22z m199 -44 c22 -20 24 -61 4 -88 -10 -14 -30 -20 -65 -22 l-50 -3 0 67 0
68 46 -2 c26 -1 54 -10 65 -20z"/>
<path d="M3323 3303 c-16 -35 -10 -58 17 -58 15 0 24 5 23 13 -3 13 -3 14 47
16 l35 1 3 -163 2 -162 25 0 25 0 0 163 0 163 33 -1 c38 -1 60 -12 52 -26 -4
-5 6 -9 20 -9 24 0 26 3 23 38 l-3 37 -147 3 c-133 2 -148 1 -155 -15z"/>
<path d="M3686 3161 c-32 -88 -64 -162 -71 -165 -18 -7 -12 -40 8 -44 28 -6
50 14 66 59 l17 44 67 1 67 1 16 -44 c17 -43 38 -63 68 -63 20 0 21 39 2 54
-8 6 -39 79 -69 161 -52 143 -56 150 -83 153 -29 3 -30 1 -88 -157z m134 -53
c0 -4 -22 -8 -50 -8 -27 0 -50 2 -50 5 0 2 9 30 21 62 11 32 23 65 26 73 4 13
53 -108 53 -132z"/>
<path d="M3970 3294 c0 -14 4 -23 9 -19 19 11 25 -23 26 -160 0 -77 4 -145 7
-151 5 -7 45 -12 107 -12 94 -1 99 0 105 21 12 44 7 57 -19 57 -16 0 -25 -6
-25 -15 0 -10 -10 -15 -27 -16 -16 0 -41 -2 -56 -3 -16 -1 -31 2 -34 8 -3 5
-6 72 -5 150 0 82 -4 146 -10 154 -6 6 -26 12 -44 12 -30 0 -34 -3 -34 -26z"/>
<path d="M4875 2785 c-23 -8 -56 -32 -77 -55 -106 -119 -24 -311 134 -312 91
-1 157 46 186 131 15 42 15 65 1 114 -27 99 -142 156 -244 122z m127 -56 c87
-36 92 -180 8 -240 -83 -60 -202 8 -202 115 0 108 92 167 194 125z"/>
<path d="M2340 2765 c0 -23 4 -25 33 -24 71 4 67 11 67 -119 0 -130 -8 -154
-53 -154 -35 0 -55 17 -59 50 -2 21 -8 27 -28 27 -22 -1 -25 -5 -22 -30 4 -48
22 -73 63 -89 32 -13 45 -14 75 -3 67 22 77 47 79 199 1 73 -2 141 -7 151 -7
14 -22 17 -78 17 -68 0 -70 -1 -70 -25z"/>
<path d="M2671 2768 c-4 -13 -29 -81 -56 -153 -26 -71 -53 -135 -61 -141 -23
-19 -18 -54 9 -54 32 0 42 10 61 61 l17 45 65 1 65 1 24 -55 c22 -48 27 -54
51 -51 29 3 43 35 19 44 -7 3 -39 77 -71 165 -56 154 -59 159 -86 159 -20 0
-31 -6 -37 -22z m65 -126 l21 -67 -44 -3 c-25 -2 -47 -1 -50 2 -3 2 6 36 19
74 12 39 25 68 27 66 3 -2 15 -35 27 -72z"/>
<path d="M2909 2788 c-8 -28 -5 -41 12 -45 18 -5 19 -16 19 -164 l0 -159 25 0
c24 0 25 2 25 70 0 77 8 88 55 76 18 -5 34 -24 56 -69 34 -68 43 -77 75 -77
28 0 41 40 15 47 -10 2 -30 29 -45 60 l-27 56 21 19 c28 26 40 60 34 94 -13
74 -50 94 -174 94 -49 0 -90 -1 -91 -2z m199 -66 c16 -21 15 -63 -1 -86 -9
-12 -30 -19 -65 -21 l-52 -4 0 64 c0 53 3 64 18 67 33 7 87 -4 100 -20z"/>
<path d="M3230 2765 c0 -14 3 -24 8 -24 25 4 28 -8 27 -140 0 -77 3 -149 7
-161 7 -19 15 -21 83 -19 146 4 218 70 210 194 -4 64 -16 94 -51 126 -42 38
-85 49 -190 49 -94 0 -94 0 -94 -25z m220 -40 c43 -22 63 -68 58 -130 -7 -80
-47 -121 -123 -126 -69 -5 -65 -12 -65 134 0 74 2 136 5 139 10 10 96 -2 125
-17z"/>
<path d="M3610 2769 c0 -12 8 -23 19 -26 17 -4 19 -16 18 -139 0 -129 -2 -139
-29 -135 -5 0 -8 -10 -8 -24 0 -24 3 -25 59 -25 68 0 81 10 50 41 -18 18 -21
32 -21 112 1 170 1 179 13 171 14 -8 29 14 22 33 -3 9 -24 13 -64 13 -53 0
-59 -2 -59 -21z"/>
<path d="M3822 2783 c1 -7 -5 -85 -17 -218 -2 -22 -4 -52 -4 -67 -1 -18 -7
-28 -16 -28 -9 0 -15 -9 -15 -25 0 -21 5 -25 28 -25 15 0 32 4 39 8 11 7 26
126 27 220 0 17 2 32 4 32 2 0 23 -42 47 -94 62 -132 74 -133 131 -10 24 53
44 100 44 106 0 6 2 9 5 7 2 -3 7 -57 11 -120 8 -135 14 -151 56 -147 37 4 45
19 23 42 -18 17 -21 37 -31 181 -4 55 -8 107 -10 115 -1 8 -3 19 -3 23 -1 5
-13 7 -28 5 -24 -3 -33 -15 -77 -116 -28 -61 -53 -109 -57 -105 -4 5 -27 55
-52 113 -42 99 -47 105 -76 108 -17 2 -31 0 -29 -5z"/>
<path d="M4375 2768 c1 -13 9 -24 18 -26 14 -3 17 -24 19 -160 l3 -157 75 -1
c41 -1 88 3 105 9 42 14 92 64 106 105 17 51 7 134 -22 176 -38 57 -82 73
-202 75 -102 2 -104 2 -102 -21z m244 -63 c43 -42 45 -156 4 -197 -27 -26 -85
-45 -127 -40 l-35 4 1 132 0 131 27 5 c40 9 103 -8 130 -35z"/>
<path d="M4618 2260 c-132 -24 -191 -207 -99 -309 111 -122 308 -60 327 102
16 134 -91 231 -228 207z m120 -68 c53 -34 71 -131 36 -190 -36 -61 -124 -84
-181 -46 -70 45 -84 156 -28 214 47 49 117 58 173 22z"/>
<path d="M2282 2238 c2 -13 9 -22 16 -20 15 3 14 13 16 -158 1 -80 6 -151 10
-158 11 -18 145 -14 185 5 56 28 67 123 19 163 -17 15 -20 22 -10 28 20 14 32
69 21 101 -16 45 -61 61 -169 61 -89 0 -91 -1 -88 -22z m195 -40 c18 -15 16
-63 -3 -79 -16 -13 -69 -20 -91 -11 -8 2 -13 24 -13 56 l0 52 47 -3 c26 -2 53
-9 60 -15z m13 -158 c14 -14 19 -29 15 -47 -7 -40 -26 -54 -81 -56 l-49 -2 -3
63 -3 62 51 0 c37 0 55 -5 70 -20z"/>
<path d="M2610 2234 c0 -14 4 -23 9 -19 18 11 22 -16 23 -157 0 -82 4 -148 10
-155 12 -15 204 -18 213 -4 3 5 7 23 9 40 3 28 1 31 -26 31 -16 0 -27 -4 -23
-9 8 -14 -9 -21 -57 -22 -78 -2 -74 -5 -73 58 l1 58 66 -1 c55 0 65 2 63 15
-2 9 -4 19 -4 24 -1 4 -28 7 -61 7 -33 0 -61 3 -61 8 -4 22 -5 88 -2 97 2 6
27 10 56 9 40 -1 53 -5 55 -18 2 -9 13 -16 28 -16 19 0 24 5 24 24 0 55 -3 56
-131 56 l-119 0 0 -26z"/>
<path d="M2910 2239 c0 -12 8 -23 20 -26 19 -5 20 -14 20 -139 0 -127 -1 -134
-20 -134 -15 0 -20 -7 -20 -25 0 -24 3 -25 60 -25 47 0 60 3 60 15 0 24 -4 30
-17 29 -13 -2 -14 14 -14 161 0 119 0 125 15 119 9 -3 15 4 18 20 5 26 4 26
-58 26 -58 0 -64 -2 -64 -21z"/>
<path d="M3137 2247 c-8 -22 6 -36 38 -35 66 1 62 9 63 -122 1 -115 0 -120
-24 -139 -34 -27 -81 -10 -88 31 -6 42 -56 51 -56 10 0 -49 32 -87 92 -105 28
-9 86 12 108 40 19 24 20 37 18 177 l-3 151 -71 3 c-54 2 -73 -1 -77 -11z"/>
<path d="M3470 2238 c-5 -13 -32 -84 -60 -158 -27 -74 -54 -136 -60 -138 -5
-2 -10 -15 -10 -28 0 -19 5 -24 24 -24 27 0 37 11 56 60 8 19 18 38 23 41 4 3
36 6 69 5 l61 -1 13 -39 c18 -51 32 -66 60 -66 19 0 24 5 24 24 0 13 -5 26
-10 28 -6 2 -37 73 -69 158 -53 142 -60 155 -84 158 -20 3 -29 -2 -37 -20z
m66 -130 l24 -68 -54 0 -54 0 26 81 c15 44 28 74 30 67 2 -7 15 -43 28 -80z"/>
<path d="M3928 2253 c-9 -17 -2 -38 12 -38 13 0 15 -26 18 -162 l2 -163 25 0
c17 0 25 6 26 18 0 9 1 44 2 77 2 66 -3 62 85 64 34 1 42 4 42 20 0 23 -11 27
-77 26 l-53 -1 0 58 c0 48 3 58 18 59 69 5 75 4 80 -13 5 -21 47 -25 54 -5 3
6 2 23 -2 37 -6 25 -8 25 -117 28 -61 1 -113 -1 -115 -5z"/>
<path d="M4200 2240 c0 -11 7 -23 15 -26 12 -5 15 -32 15 -153 0 -101 4 -151
12 -159 16 -16 194 -16 204 -1 4 6 8 24 9 40 2 24 -1 29 -21 29 -13 0 -25 -7
-28 -17 -4 -14 -15 -18 -43 -16 -21 1 -47 2 -59 2 -20 1 -21 6 -20 141 1 77
-2 149 -6 160 -11 29 -78 29 -78 0z"/>
<path d="M4890 2242 c0 -12 8 -25 18 -31 15 -8 17 -27 18 -143 2 -190 0 -178
29 -178 24 0 25 2 25 70 0 76 8 88 53 76 16 -4 31 -22 47 -56 30 -64 55 -90
85 -90 20 0 25 5 25 25 0 15 -6 25 -15 25 -8 0 -28 26 -44 59 l-30 58 24 13
c24 13 43 67 37 105 -1 12 -13 34 -26 50 -23 29 -26 30 -135 33 -107 4 -111 3
-111 -16z m207 -58 c15 -23 13 -54 -6 -82 -4 -8 -31 -16 -60 -18 l-51 -5 0 65
c0 71 4 75 68 68 21 -3 39 -13 49 -28z"/>
<path d="M3715 2082 c-11 -29 -3 -32 74 -32 70 0 79 2 76 18 -2 9 -4 20 -4 23
-1 3 -32 5 -71 5 -49 0 -71 -5 -75 -14z"/>
</g>
</svg>
